<svg width="3366" height="1002" viewBox="0 0 3366 1002" fill="none" xmlns="http://www.w3.org/2000/svg">
<path d="M500.895 0C417.022 0.00331113 333.523 25.65 176.612 73.8448L156.419 80.0466V352.987C156.42 357.249 156.486 361.63 156.624 366.115C169.24 350.558 187.439 339.033 201.157 332.504V113.326C352.779 66.7973 427.025 44.9692 500.895 44.9661C574.765 44.9692 649.009 66.7973 800.633 113.326V332.504C814.352 339.033 832.55 350.558 845.167 366.115C845.303 361.63 845.369 357.249 845.371 352.987V80.0466L825.179 73.8448C668.267 25.65 584.769 0.00331113 500.895 0Z" fill="#669961"/>
<path fill-rule="evenodd" clip-rule="evenodd" d="M599.775 192.678C599.775 245.885 556.62 289.017 503.387 289.017C450.154 289.017 406.999 245.885 406.999 192.678C406.999 139.471 450.154 96.3379 503.387 96.3379C556.62 96.3379 599.775 139.471 599.775 192.678ZM546.762 192.678C546.762 216.62 527.342 236.031 503.387 236.031C479.432 236.031 460.012 216.62 460.012 192.678C460.012 168.734 479.432 149.325 503.387 149.325C527.342 149.325 546.762 168.734 546.762 192.678Z" fill="#669961"/>
<path fill-rule="evenodd" clip-rule="evenodd" d="M378.082 245.664C378.082 282.909 347.874 313.103 310.612 313.103C273.347 313.103 243.14 282.909 243.14 245.664C243.14 208.42 273.347 178.227 310.612 178.227C347.874 178.227 378.082 208.42 378.082 245.664ZM339.527 245.664C339.527 261.626 326.582 274.566 310.612 274.566C294.641 274.566 281.694 261.626 281.694 245.664C281.694 229.702 294.641 216.762 310.612 216.762C326.582 216.762 339.527 229.702 339.527 245.664Z" fill="#669961"/>
<path fill-rule="evenodd" clip-rule="evenodd" d="M696.163 313.103C733.427 313.103 763.635 282.909 763.635 245.664C763.635 208.42 733.427 178.227 696.163 178.227C658.9 178.227 628.69 208.42 628.69 245.664C628.69 282.909 658.9 313.103 696.163 313.103ZM696.163 274.566C712.133 274.566 725.08 261.626 725.08 245.664C725.08 229.702 712.133 216.762 696.163 216.762C680.192 216.762 667.247 229.702 667.247 245.664C667.247 261.626 680.192 274.566 696.163 274.566Z" fill="#669961"/>
<path d="M10.4477 449.146C85.4406 616.003 141.336 709.754 330.601 812.145L330.663 811.954C120.162 681.604 -7.89202 468.93 130.126 274.568C116.877 573.22 232.322 751.45 500.893 869.465C769.464 751.45 884.909 573.22 871.66 274.568C1009.68 468.93 881.623 681.604 671.122 811.954L671.184 812.145C860.45 709.754 916.345 616.003 991.337 449.146C1057.42 675.837 795.897 805.476 604.596 865.435C751.081 851.081 862.996 788.961 973.131 669.168C965.81 861.117 726.443 891.413 565.953 887.475C672.585 908.627 774.316 892.303 890.052 840.664C824.546 977.288 658.58 951.563 528.011 902.529C598.994 940.068 678.569 956.709 774.953 957.09C702.506 1018 619.937 1000.73 545.39 955.248C563.088 971.381 583.46 986.371 606.759 1000.73C568.818 1006.57 537.815 991.707 515.024 968.459C511.524 983.954 506.623 996.403 500.895 998.058C495.167 996.403 490.262 983.954 486.762 968.459C463.971 991.707 432.968 1006.57 395.026 1000.73C418.326 986.371 438.698 971.381 456.395 955.248C381.849 1000.73 299.279 1018 226.832 957.09C323.216 956.709 402.792 940.068 473.774 902.529C343.206 951.563 177.24 977.288 111.733 840.664C227.469 892.303 329.201 908.627 435.833 887.475C275.343 891.413 35.9759 861.117 28.6548 669.168C138.789 788.961 250.705 851.081 397.19 865.435C205.889 805.476 -55.6326 675.837 10.4477 449.146Z" fill="#669961"/>
<path d="M500.895 818.942L544.128 900.692L500.895 982.443L457.66 900.692L500.895 818.942Z" fill="#669961"/>
<path d="M685.999 423.958V723.728C669.742 738.396 651.982 752.536 632.594 765.951V423.958C632.594 400.004 613.033 380.587 588.9 380.587H414.124C389.993 380.587 370.431 400.004 370.431 423.958V764.446C351.05 750.939 333.288 736.712 317.027 721.963V423.958C317.027 370.728 360.499 327.576 414.124 327.576H588.9C642.526 327.576 685.999 370.728 685.999 423.958Z" fill="#669961"/>
<path d="M200.51 567.156C175.941 516.064 162.614 466.191 156.419 423.918C168.805 384.836 205.597 356.492 249.058 356.492H296.375C287.887 371.053 282.063 387.335 279.565 404.682H249.058C222.246 404.682 200.51 426.259 200.51 452.874V567.156Z" fill="#669961"/>
<path d="M801.28 567.156C825.848 516.064 839.175 466.191 845.37 423.918C832.984 384.836 796.193 356.492 752.731 356.492H705.415C713.902 371.053 719.725 387.335 722.225 404.682H752.731C779.543 404.682 801.28 426.259 801.28 452.874V567.156Z" fill="#669961"/>
<path opacity="0.9" d="M1312.86 141.242C1304.37 141.242 1296.71 139.398 1289.9 135.711C1283.09 131.943 1277.72 126.773 1273.79 120.2C1269.94 113.627 1268.02 106.292 1268.02 98.1961C1268.02 90.0999 1269.94 82.7653 1273.79 76.1922C1277.72 69.6191 1283.09 64.4888 1289.9 60.8014C1296.71 57.0339 1304.37 55.1502 1312.86 55.1502C1321.28 55.1502 1328.89 57.0339 1335.7 60.8014C1342.51 64.4888 1347.84 69.6191 1351.69 76.1922C1355.54 82.6851 1357.46 90.0198 1357.46 98.1961C1357.46 106.372 1355.54 113.747 1351.69 120.32C1347.84 126.813 1342.51 131.943 1335.7 135.711C1328.89 139.398 1321.28 141.242 1312.86 141.242ZM1312.86 130.541C1319.03 130.541 1324.56 129.138 1329.45 126.332C1334.42 123.527 1338.31 119.679 1341.11 114.789C1344 109.819 1345.44 104.288 1345.44 98.1961C1345.44 92.1039 1344 86.613 1341.11 81.7232C1338.31 76.7533 1334.42 72.8655 1329.45 70.0599C1324.56 67.2543 1319.03 65.8515 1312.86 65.8515C1306.69 65.8515 1301.08 67.2543 1296.03 70.0599C1291.06 72.8655 1287.13 76.7533 1284.25 81.7232C1281.44 86.613 1280.04 92.1039 1280.04 98.1961C1280.04 104.288 1281.44 109.819 1284.25 114.789C1287.13 119.679 1291.06 123.527 1296.03 126.332C1301.08 129.138 1306.69 130.541 1312.86 130.541ZM1374.67 68.9778C1376.27 69.5389 1377.51 70.4607 1378.39 71.7433C1379.27 73.0258 1379.72 74.589 1379.72 76.4326C1379.72 78.8374 1378.95 80.8014 1377.43 82.3244C1375.91 83.8474 1374.03 84.609 1371.78 84.609C1369.46 84.609 1367.53 83.8474 1366.01 82.3244C1364.49 80.7212 1363.73 78.7573 1363.73 76.4326C1363.73 75.3104 1363.85 74.1882 1364.09 73.0659C1364.41 71.8635 1365.01 70.1401 1365.89 67.8956L1371.54 51.062H1379.11L1374.67 68.9778ZM1457.32 129.819V140.28H1386.99V132.104L1439.89 66.573H1387.84V56.1121H1455.76V64.2884L1403.1 129.819H1457.32ZM1526.47 96.633C1531.36 97.9957 1535.21 100.481 1538.01 104.088C1540.82 107.615 1542.22 112.104 1542.22 117.555C1542.22 124.849 1539.45 130.46 1533.92 134.388C1528.47 138.316 1520.5 140.28 1510 140.28H1469.85V56.1121H1507.6C1517.21 56.1121 1524.63 58.0359 1529.84 61.8836C1535.13 65.7313 1537.77 71.0619 1537.77 77.8755C1537.77 82.2843 1536.73 86.0919 1534.65 89.2983C1532.64 92.5047 1529.92 94.9496 1526.47 96.633ZM1481.87 65.8515V92.7853H1506.52C1512.69 92.7853 1517.42 91.663 1520.7 89.4186C1524.07 87.0939 1525.75 83.7272 1525.75 79.3184C1525.75 74.9096 1524.07 71.583 1520.7 69.3385C1517.42 67.0139 1512.69 65.8515 1506.52 65.8515H1481.87ZM1509.52 130.541C1516.33 130.541 1521.46 129.418 1524.91 127.174C1528.35 124.929 1530.08 121.402 1530.08 116.593C1530.08 107.214 1523.23 102.525 1509.52 102.525H1481.87V130.541H1509.52ZM1618.29 129.819V140.28H1557.23V56.1121H1616.61V66.573H1569.25V92.4246H1611.44V102.645H1569.25V129.819H1618.29ZM1661.56 102.885L1646.17 118.517V140.28H1634.15V56.1121H1646.17V103.126L1691.86 56.1121H1705.56L1669.62 93.9877L1707.84 140.28H1693.78L1661.56 102.885ZM1716.95 56.1121H1728.97V140.28H1716.95V56.1121ZM1775.08 141.242C1768.75 141.242 1762.62 140.28 1756.69 138.356C1750.84 136.352 1746.23 133.787 1742.87 130.661L1747.31 121.282C1750.52 124.168 1754.61 126.533 1759.58 128.376C1764.63 130.14 1769.8 131.022 1775.08 131.022C1782.06 131.022 1787.27 129.859 1790.71 127.535C1794.16 125.13 1795.88 121.964 1795.88 118.036C1795.88 115.15 1794.92 112.825 1793 111.062C1791.15 109.218 1788.83 107.815 1786.02 106.853C1783.3 105.891 1779.41 104.809 1774.36 103.607C1768.03 102.084 1762.9 100.561 1758.98 99.0378C1755.13 97.5147 1751.8 95.1901 1749 92.0639C1746.27 88.8574 1744.91 84.5689 1744.91 79.1982C1744.91 74.7092 1746.07 70.6611 1748.4 67.0539C1750.8 63.4467 1754.41 60.561 1759.22 58.3967C1764.02 56.2323 1770 55.1502 1777.13 55.1502C1782.1 55.1502 1786.99 55.7915 1791.79 57.074C1796.6 58.3566 1800.73 60.2003 1804.18 62.6051L1800.21 72.2243C1796.68 69.9798 1792.92 68.2964 1788.91 67.1742C1784.9 65.9718 1780.97 65.3706 1777.13 65.3706C1770.32 65.3706 1765.19 66.613 1761.74 69.098C1758.37 71.583 1756.69 74.7894 1756.69 78.7172C1756.69 81.603 1757.65 83.9677 1759.58 85.8114C1761.5 87.5749 1763.86 88.9777 1766.67 90.0198C1769.55 90.9817 1773.44 92.0238 1778.33 93.146C1784.66 94.669 1789.75 96.1921 1793.6 97.7151C1797.44 99.2382 1800.73 101.563 1803.46 104.689C1806.26 107.815 1807.66 112.024 1807.66 117.314C1807.66 121.723 1806.46 125.771 1804.06 129.458C1801.65 133.066 1798.01 135.951 1793.12 138.116C1788.23 140.2 1782.22 141.242 1775.08 141.242ZM1837.15 66.573H1808.3V56.1121H1877.91V66.573H1849.05V140.28H1837.15V66.573ZM1924.21 141.242C1915.71 141.242 1908.06 139.398 1901.25 135.711C1894.43 131.943 1889.06 126.773 1885.14 120.2C1881.29 113.627 1879.37 106.292 1879.37 98.1961C1879.37 90.0999 1881.29 82.7653 1885.14 76.1922C1889.06 69.6191 1894.43 64.4888 1901.25 60.8014C1908.06 57.0339 1915.71 55.1502 1924.21 55.1502C1932.62 55.1502 1940.23 57.0339 1947.05 60.8014C1953.86 64.4888 1959.19 69.6191 1963.04 76.1922C1966.88 82.6851 1968.81 90.0198 1968.81 98.1961C1968.81 106.372 1966.88 113.747 1963.04 120.32C1959.19 126.813 1953.86 131.943 1947.05 135.711C1940.23 139.398 1932.62 141.242 1924.21 141.242ZM1924.21 130.541C1930.38 130.541 1935.91 129.138 1940.8 126.332C1945.76 123.527 1949.65 119.679 1952.46 114.789C1955.34 109.819 1956.78 104.288 1956.78 98.1961C1956.78 92.1039 1955.34 86.613 1952.46 81.7232C1949.65 76.7533 1945.76 72.8655 1940.8 70.0599C1935.91 67.2543 1930.38 65.8515 1924.21 65.8515C1918.04 65.8515 1912.43 67.2543 1907.38 70.0599C1902.41 72.8655 1898.48 76.7533 1895.6 81.7232C1892.79 86.613 1891.39 92.1039 1891.39 98.1961C1891.39 104.288 1892.79 109.819 1895.6 114.789C1898.48 119.679 1902.41 123.527 1907.38 126.332C1912.43 129.138 1918.04 130.541 1924.21 130.541ZM2055.95 56.1121V140.28H2046.09L1995.6 77.5148V140.28H1983.57V56.1121H1993.43L2043.92 118.877V56.1121H2055.95ZM2162.45 140.28L2144.3 114.428C2142.06 114.589 2140.3 114.669 2139.01 114.669H2118.22V140.28H2106.19V56.1121H2139.01C2149.91 56.1121 2158.49 58.7173 2164.74 63.9277C2170.99 69.1381 2174.12 76.3124 2174.12 85.4506C2174.12 91.9436 2172.51 97.4747 2169.31 102.044C2166.1 106.613 2161.53 109.94 2155.6 112.024L2175.56 140.28H2162.45ZM2138.65 104.449C2146.27 104.449 2152.08 102.805 2156.08 99.5187C2160.09 96.2322 2162.09 91.5428 2162.09 85.4506C2162.09 79.3585 2160.09 74.7092 2156.08 71.5028C2152.08 68.2163 2146.27 66.573 2138.65 66.573H2118.22V104.449H2138.65ZM2251.01 129.819V140.28H2189.94V56.1121H2249.33V66.573H2201.97V92.4246H2244.16V102.645H2201.97V129.819H2251.01ZM2291.38 141.242C2285.05 141.242 2278.92 140.28 2272.99 138.356C2267.14 136.352 2262.53 133.787 2259.17 130.661L2263.62 121.282C2266.82 124.168 2270.91 126.533 2275.88 128.376C2280.93 130.14 2286.1 131.022 2291.38 131.022C2298.36 131.022 2303.57 129.859 2307.01 127.535C2310.46 125.13 2312.18 121.964 2312.18 118.036C2312.18 115.15 2311.22 112.825 2309.3 111.062C2307.45 109.218 2305.13 107.815 2302.32 106.853C2299.6 105.891 2295.71 104.809 2290.66 103.607C2284.33 102.084 2279.2 100.561 2275.28 99.0378C2271.43 97.5147 2268.1 95.1901 2265.3 92.0639C2262.57 88.8574 2261.21 84.5689 2261.21 79.1982C2261.21 74.7092 2262.37 70.6611 2264.7 67.0539C2267.1 63.4467 2270.71 60.561 2275.52 58.3967C2280.33 56.2323 2286.3 55.1502 2293.43 55.1502C2298.4 55.1502 2303.29 55.7915 2308.09 57.074C2312.9 58.3566 2317.03 60.2003 2320.48 62.6051L2316.51 72.2243C2312.98 69.9798 2309.22 68.2964 2305.21 67.1742C2301.2 65.9718 2297.28 65.3706 2293.43 65.3706C2286.62 65.3706 2281.49 66.613 2278.04 69.098C2274.67 71.583 2272.99 74.7894 2272.99 78.7172C2272.99 81.603 2273.95 83.9677 2275.88 85.8114C2277.8 87.5749 2280.16 88.9777 2282.97 90.0198C2285.85 90.9817 2289.74 92.0238 2294.63 93.146C2300.96 94.669 2306.05 96.1921 2309.9 97.7151C2313.74 99.2382 2317.03 101.563 2319.76 104.689C2322.56 107.815 2323.96 112.024 2323.96 117.314C2323.96 121.723 2322.76 125.771 2320.36 129.458C2317.95 133.066 2314.31 135.951 2309.42 138.116C2304.53 140.2 2298.52 141.242 2291.38 141.242ZM2370.75 56.1121C2381.65 56.1121 2390.22 58.7173 2396.47 63.9277C2402.72 69.1381 2405.85 76.3124 2405.85 85.4506C2405.85 94.5889 2402.72 101.763 2396.47 106.974C2390.22 112.184 2381.65 114.789 2370.75 114.789H2349.95V140.28H2337.93V56.1121H2370.75ZM2370.39 104.328C2378 104.328 2383.81 102.725 2387.82 99.5187C2391.82 96.2322 2393.83 91.5428 2393.83 85.4506C2393.83 79.3585 2391.82 74.7092 2387.82 71.5028C2383.81 68.2163 2378 66.573 2370.39 66.573H2349.95V104.328H2370.39ZM2455 141.242C2443.78 141.242 2435.04 138.036 2428.79 131.623C2422.54 125.21 2419.41 115.992 2419.41 103.968V56.1121H2431.43V103.487C2431.43 121.523 2439.33 130.541 2455.12 130.541C2462.81 130.541 2468.7 128.336 2472.79 123.927C2476.88 119.438 2478.92 112.625 2478.92 103.487V56.1121H2490.58V103.968C2490.58 116.072 2487.45 125.33 2481.2 131.743C2474.95 138.076 2466.22 141.242 2455 141.242ZM2568.24 96.633C2573.13 97.9957 2576.97 100.481 2579.78 104.088C2582.58 107.615 2583.99 112.104 2583.99 117.555C2583.99 124.849 2581.22 130.46 2575.69 134.388C2570.24 138.316 2562.27 140.28 2551.77 140.28H2511.62V56.1121H2549.36C2558.98 56.1121 2566.4 58.0359 2571.6 61.8836C2576.89 65.7313 2579.54 71.0619 2579.54 77.8755C2579.54 82.2843 2578.5 86.0919 2576.41 89.2983C2574.41 92.5047 2571.68 94.9496 2568.24 96.633ZM2523.64 65.8515V92.7853H2548.28C2554.45 92.7853 2559.18 91.663 2562.47 89.4186C2565.83 87.0939 2567.52 83.7272 2567.52 79.3184C2567.52 74.9096 2565.83 71.583 2562.47 69.3385C2559.18 67.0139 2554.45 65.8515 2548.28 65.8515H2523.64ZM2551.29 130.541C2558.1 130.541 2563.23 129.418 2566.68 127.174C2570.12 124.929 2571.84 121.402 2571.84 116.593C2571.84 107.214 2564.99 102.525 2551.29 102.525H2523.64V130.541H2551.29ZM2598.99 56.1121H2611.01V129.819H2656.58V140.28H2598.99V56.1121ZM2666.77 56.1121H2678.8V140.28H2666.77V56.1121ZM2727.78 102.885L2712.4 118.517V140.28H2700.37V56.1121H2712.4V103.126L2758.08 56.1121H2771.78L2735.84 93.9877L2774.07 140.28H2760L2727.78 102.885ZM2833.39 119.238H2788.67L2779.41 140.28H2767.03L2805.14 56.1121H2817.04L2855.27 140.28H2842.65L2833.39 119.238ZM2829.18 109.619L2811.03 68.3766L2792.88 109.619H2829.18ZM2888.73 141.242C2882.4 141.242 2876.27 140.28 2870.34 138.356C2864.49 136.352 2859.88 133.787 2856.51 130.661L2860.96 121.282C2864.17 124.168 2868.25 126.533 2873.22 128.376C2878.27 130.14 2883.44 131.022 2888.73 131.022C2895.7 131.022 2900.91 129.859 2904.36 127.535C2907.8 125.13 2909.53 121.964 2909.53 118.036C2909.53 115.15 2908.56 112.825 2906.64 111.062C2904.8 109.218 2902.47 107.815 2899.67 106.853C2896.94 105.891 2893.06 104.809 2888.01 103.607C2881.68 102.084 2876.55 100.561 2872.62 99.0378C2868.77 97.5147 2865.45 95.1901 2862.64 92.0639C2859.92 88.8574 2858.56 84.5689 2858.56 79.1982C2858.56 74.7092 2859.72 70.6611 2862.04 67.0539C2864.45 63.4467 2868.05 60.561 2872.86 58.3967C2877.67 56.2323 2883.64 55.1502 2890.77 55.1502C2895.74 55.1502 2900.63 55.7915 2905.44 57.074C2910.25 58.3566 2914.38 60.2003 2917.82 62.6051L2913.85 72.2243C2910.33 69.9798 2906.56 68.2964 2902.55 67.1742C2898.55 65.9718 2894.62 65.3706 2890.77 65.3706C2883.96 65.3706 2878.83 66.613 2875.39 69.098C2872.02 71.583 2870.34 74.7894 2870.34 78.7172C2870.34 81.603 2871.3 83.9677 2873.22 85.8114C2875.15 87.5749 2877.51 88.9777 2880.31 90.0198C2883.2 90.9817 2887.09 92.0238 2891.98 93.146C2898.31 94.669 2903.4 96.1921 2907.24 97.7151C2911.09 99.2382 2914.38 101.563 2917.1 104.689C2919.91 107.815 2921.31 112.024 2921.31 117.314C2921.31 121.723 2920.11 125.771 2917.7 129.458C2915.3 133.066 2911.65 135.951 2906.76 138.116C2901.87 140.2 2895.86 141.242 2888.73 141.242ZM2935.27 56.1121H2947.29V140.28H2935.27V56.1121ZM1307.69 256.512C1318.59 256.512 1327.17 259.117 1333.42 264.328C1339.67 269.538 1342.79 276.712 1342.79 285.851C1342.79 294.989 1339.67 302.163 1333.42 307.374C1327.17 312.584 1318.59 315.189 1307.69 315.189H1286.89V340.68H1274.87V256.512H1307.69ZM1307.33 304.728C1314.94 304.728 1320.75 303.125 1324.76 299.919C1328.77 296.632 1330.77 291.943 1330.77 285.851C1330.77 279.758 1328.77 275.109 1324.76 271.903C1320.75 268.616 1314.94 266.973 1307.33 266.973H1286.89V304.728H1307.33ZM1413.11 340.68L1394.96 314.828C1392.71 314.989 1390.95 315.069 1389.67 315.069H1368.87V340.68H1356.85V256.512H1389.67C1400.57 256.512 1409.14 259.117 1415.39 264.328C1421.64 269.538 1424.77 276.712 1424.77 285.851C1424.77 292.344 1423.17 297.875 1419.96 302.444C1416.76 307.013 1412.19 310.34 1406.26 312.424L1426.21 340.68H1413.11ZM1389.31 304.849C1396.92 304.849 1402.73 303.205 1406.74 299.919C1410.74 296.632 1412.75 291.943 1412.75 285.851C1412.75 279.758 1410.74 275.109 1406.74 271.903C1402.73 268.616 1396.92 266.973 1389.31 266.973H1368.87V304.849H1389.31ZM1501.65 330.219V340.68H1440.59V256.512H1499.97V266.973H1452.61V292.825H1494.8V303.045H1452.61V330.219H1501.65ZM1580.39 330.219V340.68H1510.06V332.504L1562.95 266.973H1510.9V256.512H1578.82V264.688L1526.17 330.219H1580.39ZM1592.91 256.512H1604.94V340.68H1592.91V256.512ZM1626.52 256.512H1661.99C1670.88 256.512 1678.78 258.276 1685.67 261.803C1692.56 265.33 1697.89 270.3 1701.66 276.712C1705.5 283.045 1707.43 290.34 1707.43 298.596C1707.43 306.853 1705.5 314.187 1701.66 320.6C1697.89 326.933 1692.56 331.862 1685.67 335.39C1678.78 338.917 1670.88 340.68 1661.99 340.68H1626.52V256.512ZM1661.27 330.219C1668.08 330.219 1674.05 328.897 1679.18 326.251C1684.39 323.606 1688.39 319.919 1691.2 315.189C1694 310.38 1695.41 304.849 1695.41 298.596C1695.41 292.344 1694 286.853 1691.2 282.123C1688.39 277.314 1684.39 273.586 1679.18 270.941C1674.05 268.296 1668.08 266.973 1661.27 266.973H1638.54V330.219H1661.27ZM1783.3 330.219V340.68H1722.23V256.512H1781.62V266.973H1734.26V292.825H1776.45V303.045H1734.26V330.219H1783.3ZM1871.53 256.512V340.68H1861.67L1811.18 277.915V340.68H1799.16V256.512H1809.02L1859.51 319.277V256.512H1871.53ZM1909.82 266.973H1880.97V256.512H1950.58V266.973H1921.72V340.68H1909.82V266.973ZM1960.06 256.512H1972.08V340.68H1960.06V256.512ZM2094.71 256.512V340.68H2082.69V303.165H2034.37V340.68H2022.35V256.512H2034.37V292.704H2082.69V256.512H2094.71ZM2151.15 341.642C2139.93 341.642 2131.2 338.436 2124.95 332.023C2118.7 325.61 2115.57 316.392 2115.57 304.368V256.512H2127.59V303.887C2127.59 321.923 2135.49 330.941 2151.28 330.941C2158.97 330.941 2164.86 328.736 2168.95 324.327C2173.03 319.839 2175.08 313.025 2175.08 303.887V256.512H2186.74V304.368C2186.74 316.472 2183.61 325.73 2177.36 332.143C2171.11 338.476 2162.37 341.642 2151.15 341.642ZM2270.65 330.219V340.68H2200.32V332.504L2253.22 266.973H2201.16V256.512H2269.08V264.688L2216.43 330.219H2270.65ZM2318.05 341.642C2306.83 341.642 2298.1 338.436 2291.85 332.023C2285.59 325.61 2282.47 316.392 2282.47 304.368V256.512H2294.49V303.887C2294.49 321.923 2302.38 330.941 2318.17 330.941C2325.87 330.941 2331.76 328.736 2335.84 324.327C2339.93 319.839 2341.97 313.025 2341.97 303.887V256.512H2353.64V304.368C2353.64 316.472 2350.51 325.73 2344.26 332.143C2338.01 338.476 2329.27 341.642 2318.05 341.642ZM2430.93 340.68L2412.78 314.828C2410.54 314.989 2408.77 315.069 2407.49 315.069H2386.69V340.68H2374.67V256.512H2407.49C2418.39 256.512 2426.97 259.117 2433.22 264.328C2439.47 269.538 2442.59 276.712 2442.59 285.851C2442.59 292.344 2440.99 297.875 2437.79 302.444C2434.58 307.013 2430.01 310.34 2424.08 312.424L2444.04 340.68H2430.93ZM2407.13 304.849C2414.74 304.849 2420.56 303.205 2424.56 299.919C2428.57 296.632 2430.57 291.943 2430.57 285.851C2430.57 279.758 2428.57 275.109 2424.56 271.903C2420.56 268.616 2414.74 266.973 2407.13 266.973H2386.69V304.849H2407.13ZM2458.4 256.512H2470.42V340.68H2458.4V256.512ZM2492.02 256.512H2527.49C2536.38 256.512 2544.28 258.276 2551.17 261.803C2558.06 265.33 2563.39 270.3 2567.16 276.712C2571 283.045 2572.93 290.34 2572.93 298.596C2572.93 306.853 2571 314.187 2567.16 320.6C2563.39 326.933 2558.06 331.862 2551.17 335.39C2544.28 338.917 2536.38 340.68 2527.49 340.68H2492.02V256.512ZM2526.76 330.219C2533.58 330.219 2539.55 328.897 2544.68 326.251C2549.89 323.606 2553.89 319.919 2556.7 315.189C2559.5 310.38 2560.91 304.849 2560.91 298.596C2560.91 292.344 2559.5 286.853 2556.7 282.123C2553.89 277.314 2549.89 273.586 2544.68 270.941C2539.55 268.296 2533.58 266.973 2526.76 266.973H2504.04V330.219H2526.76ZM2640.17 319.638H2595.45L2586.19 340.68H2573.81L2611.92 256.512H2623.82L2662.05 340.68H2649.42L2640.17 319.638ZM2635.96 310.019L2617.81 268.777L2599.65 310.019H2635.96ZM2728.12 298.115H2739.66V330.941C2735.5 334.388 2730.65 337.033 2725.12 338.876C2719.59 340.72 2713.82 341.642 2707.81 341.642C2699.31 341.642 2691.66 339.798 2684.85 336.111C2678.03 332.343 2672.66 327.213 2668.74 320.72C2664.89 314.147 2662.97 306.772 2662.97 298.596C2662.97 290.42 2664.89 283.045 2668.74 276.472C2672.66 269.899 2678.03 264.769 2684.85 261.081C2691.74 257.394 2699.47 255.55 2708.05 255.55C2714.78 255.55 2720.87 256.672 2726.32 258.917C2731.85 261.081 2736.54 264.288 2740.39 268.536L2732.93 275.991C2726.2 269.498 2718.07 266.252 2708.53 266.252C2702.12 266.252 2696.35 267.654 2691.22 270.46C2686.17 273.185 2682.2 277.033 2679.32 282.003C2676.43 286.893 2674.99 292.424 2674.99 298.596C2674.99 304.688 2676.43 310.219 2679.32 315.189C2682.2 320.079 2686.17 323.927 2691.22 326.732C2696.35 329.538 2702.08 330.941 2708.41 330.941C2715.94 330.941 2722.51 329.137 2728.12 325.53V298.115ZM2759.08 256.512H2771.1V340.68H2759.08V256.512Z" fill="#669961"/>
<path d="M1281.65 477.62H1319.52V641.28H1281.65V477.62ZM1381.49 644.086C1370.43 644.086 1360.22 642.06 1350.87 638.008C1341.68 633.799 1334.12 627.875 1328.2 620.238L1349.23 594.988C1358.12 606.99 1368.24 612.99 1379.62 612.99C1395.05 612.99 1402.76 603.95 1402.76 585.87V508.014H1345.26V477.62H1440.4V583.765C1440.4 603.872 1435.41 618.992 1425.44 629.122C1415.46 639.098 1400.81 644.086 1381.49 644.086ZM1501.94 508.481H1449.58V477.62H1592.17V508.481H1539.81V641.28H1501.94V508.481ZM1605.53 477.62H1643.4V641.28H1605.53V477.62ZM1824.12 641.28L1823.88 543.084L1775.73 623.98H1758.67L1710.75 545.188V641.28H1675.22V477.62H1706.54L1767.78 579.323L1828.09 477.62H1859.18L1859.65 641.28H1824.12ZM1970.7 644.086C1953.71 644.086 1938.36 640.423 1924.65 633.098C1911.09 625.771 1900.42 615.717 1892.62 602.938C1884.99 590 1881.17 575.505 1881.17 559.451C1881.17 543.397 1884.99 528.978 1892.62 516.197C1900.42 503.261 1911.09 493.129 1924.65 485.804C1938.36 478.477 1953.71 474.814 1970.7 474.814C1987.68 474.814 2002.95 478.477 2016.51 485.804C2030.08 493.129 2040.74 503.261 2048.53 516.197C2056.33 528.978 2060.23 543.397 2060.23 559.451C2060.23 575.505 2056.33 590 2048.53 602.938C2040.74 615.717 2030.08 625.771 2016.51 633.098C2002.95 640.423 1987.68 644.086 1970.7 644.086ZM1970.7 611.821C1980.36 611.821 1989.09 609.639 1996.88 605.274C2004.67 600.755 2010.74 594.521 2015.11 586.571C2019.62 578.621 2021.88 569.581 2021.88 559.451C2021.88 549.319 2019.62 540.279 2015.11 532.329C2010.74 524.381 2004.67 518.223 1996.88 513.86C1989.09 509.339 1980.36 507.078 1970.7 507.078C1961.04 507.078 1952.31 509.339 1944.52 513.86C1936.72 518.223 1930.57 524.381 1926.05 532.329C1921.69 540.279 1919.51 549.319 1919.51 559.451C1919.51 569.581 1921.69 578.621 1926.05 586.571C1930.57 594.521 1936.72 600.755 1944.52 605.274C1952.31 609.639 1961.04 611.821 1970.7 611.821ZM2081.67 477.62H2119.54V641.28H2081.67V477.62ZM2229.89 583.299V641.28H2192.03V582.83L2128.67 477.62H2168.89L2212.6 550.333L2256.3 477.62H2293.47L2229.89 583.299ZM2511.56 477.62V641.28H2473.69V574.18H2399.36V641.28H2361.49V477.62H2399.36V542.148H2473.69V477.62H2511.56ZM2543.25 477.62H2581.12V641.28H2543.25V477.62ZM2761.84 641.28L2761.62 543.084L2713.46 623.98H2696.41L2648.48 545.188V641.28H2612.96V477.62H2644.27L2705.52 579.323L2765.83 477.62H2796.91L2797.39 641.28H2761.84ZM2908.42 644.086C2891.43 644.086 2876.09 640.423 2862.38 633.098C2848.82 625.771 2838.14 615.717 2830.35 602.938C2822.71 590 2818.9 575.505 2818.9 559.451C2818.9 543.397 2822.71 528.978 2830.35 516.197C2838.14 503.261 2848.82 493.129 2862.38 485.804C2876.09 478.477 2891.43 474.814 2908.42 474.814C2925.41 474.814 2940.68 478.477 2954.25 485.804C2967.79 493.129 2978.47 503.261 2986.26 516.197C2994.06 528.978 2997.94 543.397 2997.94 559.451C2997.94 575.505 2994.06 590 2986.26 602.938C2978.47 615.717 2967.79 625.771 2954.25 633.098C2940.68 640.423 2925.41 644.086 2908.42 644.086ZM2908.42 611.821C2918.08 611.821 2926.82 609.639 2934.61 605.274C2942.4 600.755 2948.48 594.521 2952.84 586.571C2957.35 578.621 2959.62 569.581 2959.62 559.451C2959.62 549.319 2957.35 540.279 2952.84 532.329C2948.48 524.381 2942.4 518.223 2934.61 513.86C2926.82 509.339 2918.08 507.078 2908.42 507.078C2898.77 507.078 2890.03 509.339 2882.24 513.86C2874.46 518.223 2868.29 524.381 2863.78 532.329C2859.42 540.279 2857.23 549.319 2857.23 559.451C2857.23 569.581 2859.42 578.621 2863.78 586.571C2868.29 594.521 2874.46 600.755 2882.24 605.274C2890.03 609.639 2898.77 611.821 2908.42 611.821ZM3090.87 583.299V641.28H3053V582.83L2989.65 477.62H3029.86L3073.56 550.333L3117.28 477.62H3154.44L3090.87 583.299ZM3260.99 606.21H3185.02L3170.53 641.28H3131.72L3204.65 477.62H3242.06L3315.23 641.28H3275.48L3260.99 606.21ZM3249.07 577.453L3223.13 514.794L3197.18 577.453H3249.07ZM1430.55 941.88L1430.32 843.684L1382.16 924.58H1365.1L1317.18 845.788V941.88H1281.65V778.22H1312.97L1374.22 879.923L1434.52 778.22H1465.61L1466.08 941.88H1430.55ZM1497.89 778.22H1535.76V941.88H1497.89V778.22ZM1567.57 778.22H1605.44V911.019H1687.49V941.88H1567.57V778.22ZM1701.64 778.22H1739.5V911.019H1821.55V941.88H1701.64V778.22ZM1835.69 778.22H1873.56V941.88H1835.69V778.22ZM1983.92 883.899V941.88H1946.05V883.43L1882.71 778.22H1922.91L1966.62 850.933L2010.34 778.22H2047.51L1983.92 883.899ZM2223.28 906.81H2147.31L2132.82 941.88H2094.01L2166.94 778.22H2204.35L2277.5 941.88H2237.77L2223.28 906.81ZM2211.36 878.053L2185.42 815.394L2159.47 878.053H2211.36ZM2395.75 857.478H2430.35V923.878C2421.46 930.58 2411.18 935.724 2399.5 939.309C2387.8 942.894 2376.04 944.686 2364.19 944.686C2347.2 944.686 2331.94 941.101 2318.37 933.93C2304.83 926.606 2294.15 916.552 2286.36 903.77C2278.72 890.834 2274.9 876.261 2274.9 860.051C2274.9 843.841 2278.72 829.344 2286.36 816.564C2294.15 803.626 2304.91 793.572 2318.61 786.404C2332.32 779.077 2347.74 775.414 2364.9 775.414C2379.24 775.414 2392.24 777.831 2403.93 782.662C2415.63 787.494 2425.44 794.508 2433.38 803.704L2409.07 826.149C2397.39 813.837 2383.29 807.678 2366.76 807.678C2356.32 807.678 2347.04 809.861 2338.95 814.225C2330.85 818.59 2324.54 824.746 2320.02 832.696C2315.49 840.644 2313.24 849.762 2313.24 860.051C2313.24 870.181 2315.49 879.221 2320.02 887.171C2324.54 895.121 2330.77 901.355 2338.71 905.874C2346.82 910.239 2356.02 912.421 2366.3 912.421C2377.2 912.421 2387.01 910.083 2395.75 905.407V857.478ZM2585.21 911.486V941.88H2458.5V778.22H2582.16V808.614H2496.15V844.151H2572.1V873.61H2496.15V911.486H2585.21ZM2758.38 778.22V941.88H2727.3L2645.72 842.516V941.88H2608.31V778.22H2639.65L2720.99 877.586V778.22H2758.38ZM2823.97 809.081H2771.62V778.22H2914.21V809.081H2861.84V941.88H2823.97V809.081ZM2927.58 778.22H2965.45V911.019H3047.49V941.88H2927.58V778.22ZM3061.64 778.22H3099.51V941.88H3061.64V778.22ZM3241.88 857.478H3276.48V923.878C3267.58 930.58 3257.31 935.724 3245.63 939.309C3233.92 942.894 3222.16 944.686 3210.32 944.686C3193.33 944.686 3178.06 941.101 3164.5 933.93C3150.96 926.606 3140.28 916.552 3132.48 903.77C3124.85 890.834 3121.02 876.261 3121.02 860.051C3121.02 843.841 3124.85 829.344 3132.48 816.564C3140.28 803.626 3151.04 793.572 3164.74 786.404C3178.47 779.077 3193.89 775.414 3211.02 775.414C3225.37 775.414 3238.37 777.831 3250.05 782.662C3261.75 787.494 3271.57 794.508 3279.51 803.704L3255.2 826.149C3243.52 813.837 3229.42 807.678 3212.89 807.678C3202.45 807.678 3193.19 809.861 3185.08 814.225C3176.98 818.59 3170.67 824.746 3166.14 832.696C3161.64 840.644 3159.37 849.762 3159.37 860.051C3159.37 870.181 3161.64 879.221 3166.14 887.171C3170.67 895.121 3176.9 901.355 3184.84 905.874C3192.95 910.239 3202.15 912.421 3212.43 912.421C3223.35 912.421 3233.16 910.083 3241.88 905.407V857.478ZM3304.63 778.22H3342.5V941.88H3304.63V778.22Z" fill="#669961"/>
</svg>
