<svg version="1.1" id="Layer_1" xmlns="http://www.w3.org/2000/svg" xmlns:xlink="http://www.w3.org/1999/xlink" x="0px" y="0px"
	 width="100%" viewBox="0 0 473 161" enable-background="new 0 0 473 161" xml:space="preserve">
<path fill="#FEFFFE" opacity="1.000000" stroke="none" 
	d="
M299.000000,162.000000 
	C199.333374,162.000000 100.166740,162.000000 1.000080,162.000000 
	C1.000053,108.333389 1.000053,54.666775 1.000027,1.000123 
	C158.666550,1.000082 316.333099,1.000082 473.999756,1.000041 
	C473.999817,54.666534 473.999817,108.333069 473.999908,161.999802 
	C415.833344,162.000000 357.666656,162.000000 299.000000,162.000000 
M234.363449,100.482407 
	C234.363510,102.148041 234.261307,103.821167 234.382858,105.477890 
	C234.742325,110.377304 234.473495,114.645844 227.778687,114.496559 
	C226.912094,114.477242 226.010925,116.008499 225.125763,116.821503 
	C226.299942,117.437073 227.463379,118.557823 228.650116,118.583054 
	C234.626083,118.710060 240.611908,118.650703 246.585403,118.423370 
	C248.090088,118.366104 249.562119,117.450127 251.049149,116.928780 
	C249.738907,116.014015 248.519073,114.534645 247.098755,114.307175 
	C244.493118,113.889885 242.571243,113.325417 242.535583,110.232292 
	C242.370438,95.908936 242.089539,81.585457 242.148880,67.263245 
	C242.154709,65.855919 244.008377,64.218697 245.362274,63.135597 
	C246.310211,62.377293 247.993668,62.603245 249.111038,61.970211 
	C249.919037,61.512447 250.336899,60.366066 250.928757,59.526779 
	C250.184052,59.018139 249.468811,58.131432 248.689209,58.070709 
	C246.205383,57.877243 243.663025,58.252323 241.206909,57.927109 
	C237.127701,57.386974 234.950317,59.093399 233.102081,62.678448 
	C226.549377,75.388748 219.677826,87.934830 212.903671,100.530540 
	C212.069901,102.080826 211.094635,103.555023 209.816193,105.676315 
	C208.428909,103.754868 207.402695,102.513100 206.570511,101.152641 
	C199.712585,89.941406 192.267014,79.028702 186.274872,67.370033 
	C182.212112,59.465282 176.943787,56.456970 168.601974,58.021591 
	C167.304138,58.265022 166.095154,58.982262 164.845093,59.480396 
	C165.853653,60.336269 166.727722,61.558914 167.893387,61.986382 
	C173.866821,64.176941 176.105698,67.190384 175.763062,73.602654 
	C175.176605,84.577156 174.399689,95.541412 173.800034,106.515297 
	C173.566620,110.786736 173.128708,114.521072 167.341385,114.337715 
	C166.324097,114.305489 165.246231,116.186371 164.196335,117.183731 
	C165.456390,117.657455 166.711990,118.521637 167.977280,118.536072 
	C172.960800,118.592926 177.952744,118.483742 182.930023,118.219345 
	C184.792847,118.120377 186.624191,117.429062 188.469894,117.007828 
	C186.859955,116.004501 185.180664,115.094765 183.661499,113.968948 
	C182.392288,113.028374 180.322388,111.856445 180.298203,110.750038 
	C180.049652,99.371559 180.145721,87.985550 180.145721,76.601631 
	C182.529099,78.169861 183.886948,79.982834 184.987442,81.940483 
	C190.854111,92.376755 196.591446,102.886368 202.533646,113.279076 
	C203.781616,115.461739 205.700912,117.260574 207.310883,119.236267 
	C208.913239,117.248619 210.828720,115.437431 212.065125,113.243538 
	C218.270401,102.232964 224.280731,91.112671 230.409515,80.058617 
	C231.202057,78.629173 232.284546,77.360497 233.232742,76.017349 
	C233.609802,76.196159 233.986862,76.374969 234.363922,76.553780 
	C234.363922,84.198174 234.363922,91.842575 234.363449,100.482407 
M76.805885,96.329597 
	C75.088928,100.865631 73.371971,105.401657 71.474884,110.413574 
	C98.162842,106.985764 115.036827,72.937508 101.384178,52.486900 
	C93.922989,56.172710 86.415741,59.726830 79.050308,63.553894 
	C66.168129,70.247452 59.072922,82.847527 61.725021,96.973137 
	C63.458378,106.205322 64.097000,115.213692 63.066959,124.450371 
	C62.938496,125.602356 62.868050,126.807159 63.067623,127.934952 
	C63.232418,128.866196 63.836411,129.719727 64.456451,131.064651 
	C66.524010,120.873787 67.905838,111.262550 70.503616,101.992043 
	C73.515320,91.244370 82.377678,80.409027 87.350670,79.856949 
	C83.917023,85.142578 80.506996,90.391846 76.805885,96.329597 
M58.661438,98.784927 
	C58.093369,91.891335 59.052555,84.515968 52.590561,79.461197 
	C52.566505,79.442383 52.890736,78.978325 53.210590,78.471306 
	C55.167805,79.913277 57.098667,81.335831 59.164291,82.857681 
	C60.947517,78.898918 62.569683,75.297714 64.307373,71.440056 
	C52.993893,63.336914 40.668537,60.780651 26.773235,63.378147 
	C29.218449,70.244492 31.460964,76.642563 33.784599,83.011047 
	C34.581661,85.195572 35.431168,87.385635 36.515537,89.436317 
	C40.766323,97.475098 50.839165,103.383286 58.952942,102.560532 
	C58.906849,101.602783 58.860111,100.631630 58.661438,98.784927 
M51.725498,146.034332 
	C25.871962,137.877075 9.075516,116.873352 7.558758,90.804428 
	C6.220092,67.796425 19.209715,43.233742 37.076370,35.224060 
	C36.730247,38.189808 36.394699,41.064945 35.943352,44.932281 
	C39.178120,42.389610 42.665447,32.311630 41.878857,30.236553 
	C41.764046,29.933674 41.625359,29.460230 41.407978,29.402269 
	C36.674351,28.140060 31.927998,26.925592 27.184092,25.701950 
	C26.950981,26.504593 26.717873,27.307234 26.484764,28.109877 
	C29.450525,29.195639 32.416290,30.281399 35.513332,31.415222 
	C6.002975,50.338181 -0.717795,84.239883 7.994718,108.686928 
	C16.973148,133.880127 41.745277,151.802551 68.821907,151.878555 
	C81.760681,151.914871 94.309967,148.142242 96.160866,142.754013 
	C81.584274,148.166107 67.256233,150.839188 51.725498,146.034332 
M110.476509,134.741165 
	C115.690903,136.112091 120.831970,136.469269 125.797348,134.397476 
	C125.823853,133.830658 125.850365,133.263840 125.876869,132.697021 
	C122.813461,132.393280 119.750061,132.089554 116.487473,131.766083 
	C145.468964,98.482147 134.845932,58.152470 111.956848,38.027275 
	C94.605484,22.771109 66.831017,18.785463 57.662086,25.494894 
	C85.817543,23.302624 108.564278,32.169731 123.014336,57.187557 
	C138.515671,84.025497 128.174149,117.090050 113.442703,128.660934 
	C113.069328,125.694374 112.701347,122.770615 112.333359,119.846855 
	C111.583115,119.898560 110.832870,119.950256 110.082626,120.001961 
	C110.082626,124.644295 110.082626,129.286621 110.476509,134.741165 
M391.207855,82.939247 
	C390.169861,88.395218 395.687439,84.497154 396.985352,87.402992 
	C396.985352,95.169861 397.092407,103.478577 396.852173,111.777237 
	C396.821533,112.834557 394.963562,113.826385 393.977783,114.872719 
	C393.201355,115.696846 392.464386,116.558136 391.709869,117.402916 
	C392.658447,117.813332 393.597961,118.550941 394.557159,118.577507 
	C398.700836,118.692253 402.854492,118.695076 406.994751,118.514854 
	C408.055511,118.468689 409.080688,117.605019 410.122192,117.116905 
	C409.263947,116.401192 408.424744,115.660957 407.542908,114.975601 
	C406.278656,113.993034 403.906006,113.088478 403.870605,112.084915 
	C403.573090,103.641754 403.701111,95.183594 403.701111,86.251945 
	C406.784882,86.251945 409.293365,86.498795 411.713959,86.144653 
	C412.871887,85.975250 413.863098,84.666489 414.929840,83.873756 
	C413.897980,83.045837 412.944336,81.661064 411.818329,81.502876 
	C409.266266,81.144325 406.629272,81.390022 403.835571,81.390022 
	C403.835571,78.554710 403.358887,76.286469 403.932678,74.325645 
	C405.209412,69.962723 406.242706,65.198380 408.814178,61.636490 
	C411.436188,58.004566 415.493103,61.245022 418.967102,61.831383 
	C420.249207,62.047779 422.709625,61.107342 422.968506,60.212917 
	C423.368774,58.829891 422.842468,56.287643 421.800201,55.584747 
	C420.193726,54.501400 417.709869,53.917652 415.787933,54.242928 
	C407.643585,55.621300 401.597687,59.994057 399.155975,68.151520 
	C397.884674,72.398788 397.386719,76.877556 396.520844,81.347816 
	C394.951172,81.657761 393.345428,81.974823 391.207855,82.939247 
M370.926331,112.818840 
	C370.097870,113.481873 369.238159,114.110008 368.449005,114.816925 
	C367.510437,115.657700 366.632507,116.566170 365.728302,117.445305 
	C366.850555,117.805443 367.962860,118.434982 369.096893,118.477020 
	C373.075897,118.624557 377.066345,118.673935 381.043335,118.521797 
	C382.092651,118.481644 383.109070,117.582298 384.140594,117.077492 
	C383.268219,116.374367 382.406189,115.657921 381.521027,114.971268 
	C380.256958,113.990700 377.906219,113.069542 377.870667,112.057945 
	C377.574005,103.616386 377.702209,95.159897 377.702209,86.249863 
	C380.806152,86.249863 383.318420,86.497612 385.742126,86.141899 
	C386.897064,85.972397 387.883606,84.655121 388.946442,83.857765 
	C387.910736,83.035011 386.952332,81.659439 385.823639,81.501625 
	C383.272400,81.144928 380.637146,81.389496 377.843018,81.389496 
	C377.843018,78.544930 377.366058,76.277626 377.940216,74.318321 
	C379.218262,69.957001 380.253601,65.194603 382.825562,61.634262 
	C385.449738,58.001671 389.503571,61.250832 392.976410,61.833652 
	C394.261017,62.049236 396.723511,61.107513 396.982971,60.211311 
	C397.383240,58.828819 396.852051,56.286587 395.808075,55.582504 
	C394.201691,54.499149 391.717072,53.915081 389.795624,54.241348 
	C381.654480,55.623749 375.603760,59.993225 373.160248,68.149033 
	C371.887726,72.396378 371.394745,76.877281 370.554810,81.261131 
	C368.719574,82.527603 364.061401,80.330956 365.311188,85.692146 
	C367.108124,85.920036 368.867554,86.143158 370.984558,86.411636 
	C370.984558,95.045326 370.984558,103.489311 370.926331,112.818840 
M256.713806,86.360168 
	C256.831848,92.680382 256.747986,99.012352 257.115479,105.318031 
	C257.659515,114.653778 264.101990,120.811356 272.149323,119.585350 
	C275.700165,119.044380 279.101044,117.519249 282.853577,116.352783 
	C283.261902,117.072754 283.868286,118.142006 284.609406,119.448769 
	C288.084351,117.932442 291.333496,116.514648 295.953400,114.498718 
	C287.594543,111.868591 289.508057,106.061737 289.445953,101.035599 
	C289.364410,94.437035 289.425934,87.836700 289.425934,80.682945 
	C284.389618,81.033676 280.217133,81.324257 276.044617,81.614830 
	C276.027252,82.123688 276.009888,82.632538 275.992523,83.141396 
	C276.639160,83.531746 277.270874,84.230865 277.934845,84.262993 
	C282.699524,84.493530 283.332764,87.402435 283.135284,91.390427 
	C282.880188,96.542763 282.883209,101.726395 283.133575,106.879135 
	C283.318390,110.682541 281.398682,112.801170 278.337524,114.228882 
	C273.091339,116.675636 265.878113,113.491066 264.241577,107.654694 
	C263.315247,104.351112 263.178284,100.774284 263.060577,97.307808 
	C262.877014,91.902023 263.012024,86.485420 263.012024,80.798103 
	C258.748260,81.013161 255.351303,81.184494 251.954346,81.355827 
	C251.910324,81.916519 251.866318,82.477211 251.822296,83.037903 
	C253.289703,83.912468 254.757111,84.787033 256.713806,86.360168 
M356.927002,113.085220 
	C356.541138,111.357841 355.878021,109.639320 355.822479,107.901382 
	C355.668365,103.078110 355.775238,98.246742 355.763763,93.418617 
	C355.750854,87.977791 354.736481,83.123512 348.845795,80.872025 
	C342.736877,78.537117 334.353699,79.777672 330.798584,84.180374 
	C329.798889,85.418381 329.407318,88.502968 330.239471,89.585678 
	C332.035858,91.922890 333.721527,90.375031 335.290955,88.361061 
	C336.645050,86.623398 338.512085,84.808334 340.518951,84.156990 
	C344.547424,82.849525 348.127350,85.802032 348.930817,90.429367 
	C349.998352,96.577209 349.423553,97.194008 343.728760,98.271378 
	C340.514435,98.879463 337.325256,99.966293 334.329987,101.298843 
	C330.612640,102.952660 328.962646,106.273834 329.227264,110.230881 
	C329.515350,114.539223 331.525635,118.564728 335.975586,118.972160 
	C340.605225,119.396019 345.390350,118.121552 350.838593,117.507286 
	C353.073853,117.712349 356.474548,118.804543 359.354279,118.009560 
	C361.221313,117.494141 362.327637,114.223152 364.443054,111.246590 
	C361.011871,112.435181 359.270813,113.038284 356.927002,113.085220 
M418.216217,95.194321 
	C417.170288,106.857750 420.544525,114.346008 428.493652,118.002449 
	C438.445221,122.580002 449.984711,118.297333 454.003784,108.534805 
	C458.629089,97.299698 453.544250,84.586967 442.883331,80.732162 
	C432.785492,77.080971 422.048889,83.098473 418.216217,95.194321 
M317.190399,119.041573 
	C323.393127,115.751816 325.877686,111.914040 325.216034,106.644836 
	C324.507843,101.004707 321.424622,98.113174 314.644135,96.331505 
	C311.936646,95.620071 308.984833,94.948357 306.827087,93.341568 
	C305.338348,92.232933 303.807190,88.803345 304.459747,87.742111 
	C305.495178,86.058205 308.715332,84.238777 310.334747,84.725822 
	C313.028381,85.535927 315.193115,88.118858 317.565765,89.974121 
	C318.386963,90.616241 319.164093,91.314659 319.961365,91.987358 
	C320.366791,90.907738 321.212341,89.777008 321.094025,88.758209 
	C320.756134,85.848457 320.026550,82.984200 319.422974,79.961739 
	C315.388519,80.201759 311.875427,80.108261 308.474640,80.681297 
	C302.839752,81.630783 299.242859,85.446472 299.005219,90.091537 
	C298.763184,94.822449 301.837463,99.038788 307.023987,100.925591 
	C309.829956,101.946365 313.055237,102.292702 315.407227,103.927536 
	C317.196472,105.171196 319.140747,108.228004 318.764679,110.000450 
	C318.356537,111.924080 315.552582,114.251282 313.423279,114.719513 
	C307.977295,115.917068 303.200378,112.232574 301.654114,106.717308 
	C301.395996,105.796707 300.611176,105.023766 299.859161,103.855385 
	C296.384369,112.259193 298.770294,117.493759 306.597717,118.983109 
	C309.774536,119.587570 313.139374,119.203773 317.190399,119.041573 
z"/>
<path fill="#18BB85" opacity="1.000000" stroke="none" 
	d="
M234.363678,99.984688 
	C234.363922,91.842575 234.363922,84.198174 234.363922,76.553780 
	C233.986862,76.374969 233.609802,76.196159 233.232742,76.017349 
	C232.284546,77.360497 231.202057,78.629173 230.409515,80.058617 
	C224.280731,91.112671 218.270401,102.232964 212.065125,113.243538 
	C210.828720,115.437431 208.913239,117.248619 207.310883,119.236267 
	C205.700912,117.260574 203.781616,115.461739 202.533646,113.279076 
	C196.591446,102.886368 190.854111,92.376755 184.987442,81.940483 
	C183.886948,79.982834 182.529099,78.169861 180.145721,76.601631 
	C180.145721,87.985550 180.049652,99.371559 180.298203,110.750038 
	C180.322388,111.856445 182.392288,113.028374 183.661499,113.968948 
	C185.180664,115.094765 186.859955,116.004501 188.469894,117.007828 
	C186.624191,117.429062 184.792847,118.120377 182.930023,118.219345 
	C177.952744,118.483742 172.960800,118.592926 167.977280,118.536072 
	C166.711990,118.521637 165.456390,117.657455 164.196335,117.183731 
	C165.246231,116.186371 166.324097,114.305489 167.341385,114.337715 
	C173.128708,114.521072 173.566620,110.786736 173.800034,106.515297 
	C174.399689,95.541412 175.176605,84.577156 175.763062,73.602654 
	C176.105698,67.190384 173.866821,64.176941 167.893387,61.986382 
	C166.727722,61.558914 165.853653,60.336269 164.845093,59.480400 
	C166.095154,58.982262 167.304138,58.265022 168.601974,58.021591 
	C176.943787,56.456970 182.212112,59.465282 186.274872,67.370033 
	C192.267014,79.028702 199.712585,89.941406 206.570511,101.152641 
	C207.402695,102.513100 208.428909,103.754868 209.816193,105.676315 
	C211.094635,103.555023 212.069901,102.080826 212.903671,100.530540 
	C219.677826,87.934830 226.549377,75.388748 233.102081,62.678448 
	C234.950317,59.093399 237.127701,57.386974 241.206909,57.927109 
	C243.663025,58.252323 246.205383,57.877243 248.689209,58.070709 
	C249.468811,58.131432 250.184052,59.018139 250.928757,59.526779 
	C250.336899,60.366066 249.919037,61.512447 249.111038,61.970211 
	C247.993668,62.603245 246.310211,62.377293 245.362274,63.135597 
	C244.008377,64.218697 242.154709,65.855919 242.148880,67.263245 
	C242.089539,81.585457 242.370438,95.908936 242.535583,110.232292 
	C242.571243,113.325417 244.493118,113.889885 247.098755,114.307175 
	C248.519073,114.534645 249.738907,116.014015 251.049149,116.928780 
	C249.562119,117.450127 248.090088,118.366104 246.585403,118.423370 
	C240.611908,118.650703 234.626083,118.710060 228.650116,118.583054 
	C227.463379,118.557823 226.299942,117.437073 225.125763,116.821503 
	C226.010925,116.008499 226.912094,114.477242 227.778687,114.496559 
	C234.473495,114.645844 234.742325,110.377304 234.382858,105.477890 
	C234.261307,103.821167 234.363510,102.148041 234.363678,99.984688 
z"/>
<path fill="#16BB84" opacity="1.000000" stroke="none" 
	d="
M76.951424,95.985352 
	C80.506996,90.391846 83.917023,85.142578 87.350670,79.856949 
	C82.377678,80.409027 73.515320,91.244370 70.503616,101.992043 
	C67.905838,111.262550 66.524010,120.873787 64.456451,131.064651 
	C63.836411,129.719727 63.232418,128.866196 63.067623,127.934952 
	C62.868050,126.807159 62.938496,125.602356 63.066959,124.450371 
	C64.097000,115.213692 63.458378,106.205322 61.725021,96.973137 
	C59.072922,82.847527 66.168129,70.247452 79.050308,63.553894 
	C86.415741,59.726830 93.922989,56.172710 101.384178,52.486900 
	C115.036827,72.937508 98.162842,106.985764 71.474884,110.413574 
	C73.371971,105.401657 75.088928,100.865631 76.951424,95.985352 
M88.934990,78.623245 
	C88.794930,78.223778 88.681953,77.809517 88.481766,77.442886 
	C88.455681,77.395111 87.980774,77.592407 87.713760,77.676186 
	C87.878860,78.158043 88.043961,78.639900 88.934990,78.623245 
z"/>
<path fill="#16BB84" opacity="1.000000" stroke="none" 
	d="
M58.737404,99.222702 
	C58.860111,100.631630 58.906849,101.602783 58.952942,102.560532 
	C50.839165,103.383286 40.766323,97.475098 36.515537,89.436317 
	C35.431168,87.385635 34.581661,85.195572 33.784599,83.011047 
	C31.460964,76.642563 29.218449,70.244492 26.773235,63.378147 
	C40.668537,60.780651 52.993893,63.336914 64.307373,71.440056 
	C62.569683,75.297714 60.947517,78.898918 59.164291,82.857681 
	C57.098667,81.335831 55.167805,79.913277 53.210590,78.471306 
	C52.890736,78.978325 52.566505,79.442383 52.590561,79.461197 
	C59.052555,84.515968 58.093369,91.891335 58.737404,99.222702 
M48.974670,74.938293 
	C48.611481,75.052460 48.248291,75.166634 47.885101,75.280800 
	C48.183205,75.592621 48.481312,75.904442 49.199665,76.905716 
	C49.758087,77.043732 50.316509,77.181755 50.874931,77.319771 
	C50.419704,76.664375 49.964474,76.008987 48.974670,74.938293 
z"/>
<path fill="#26BF8D" opacity="1.000000" stroke="none" 
	d="
M52.119560,146.131439 
	C67.256233,150.839188 81.584274,148.166107 96.160866,142.754013 
	C94.309967,148.142242 81.760681,151.914871 68.821907,151.878555 
	C41.745277,151.802551 16.973148,133.880127 7.994718,108.686928 
	C-0.717795,84.239883 6.002975,50.338181 35.513332,31.415222 
	C32.416290,30.281399 29.450525,29.195639 26.484764,28.109877 
	C26.717873,27.307234 26.950981,26.504593 27.184092,25.701950 
	C31.927998,26.925592 36.674351,28.140060 41.407978,29.402269 
	C41.625359,29.460230 41.764046,29.933674 41.878857,30.236553 
	C42.665447,32.311630 39.178120,42.389610 35.943352,44.932281 
	C36.394699,41.064945 36.730247,38.189808 37.076370,35.224060 
	C19.209715,43.233742 6.220092,67.796425 7.558758,90.804428 
	C9.075516,116.873352 25.871962,137.877075 52.119560,146.131439 
z"/>
<path fill="#25BF8C" opacity="1.000000" stroke="none" 
	d="
M110.279572,134.335052 
	C110.082626,129.286621 110.082626,124.644295 110.082626,120.001961 
	C110.832870,119.950256 111.583115,119.898560 112.333359,119.846855 
	C112.701347,122.770615 113.069328,125.694374 113.442703,128.660934 
	C128.174149,117.090050 138.515671,84.025497 123.014336,57.187557 
	C108.564278,32.169731 85.817543,23.302624 57.662086,25.494894 
	C66.831017,18.785463 94.605484,22.771109 111.956848,38.027275 
	C134.845932,58.152470 145.468964,98.482147 116.487473,131.766083 
	C119.750061,132.089554 122.813461,132.393280 125.876869,132.697021 
	C125.850365,133.263840 125.823853,133.830658 125.797348,134.397476 
	C120.831970,136.469269 115.690903,136.112091 110.279572,134.335052 
z"/>
<path fill="#20BE89" opacity="1.000000" stroke="none" 
	d="
M391.473755,82.615570 
	C393.345428,81.974823 394.951172,81.657761 396.520844,81.347816 
	C397.386719,76.877556 397.884674,72.398788 399.155975,68.151520 
	C401.597687,59.994057 407.643585,55.621300 415.787933,54.242928 
	C417.709869,53.917652 420.193726,54.501400 421.800201,55.584747 
	C422.842468,56.287643 423.368774,58.829891 422.968506,60.212917 
	C422.709625,61.107342 420.249207,62.047779 418.967102,61.831383 
	C415.493103,61.245022 411.436188,58.004566 408.814178,61.636490 
	C406.242706,65.198380 405.209412,69.962723 403.932678,74.325645 
	C403.358887,76.286469 403.835571,78.554710 403.835571,81.390022 
	C406.629272,81.390022 409.266266,81.144325 411.818329,81.502876 
	C412.944336,81.661064 413.897980,83.045837 414.929840,83.873764 
	C413.863098,84.666489 412.871887,85.975250 411.713959,86.144653 
	C409.293365,86.498795 406.784882,86.251945 403.701111,86.251945 
	C403.701111,95.183594 403.573090,103.641754 403.870605,112.084915 
	C403.906006,113.088478 406.278656,113.993034 407.542908,114.975601 
	C408.424744,115.660957 409.263947,116.401192 410.122192,117.116913 
	C409.080688,117.605019 408.055511,118.468689 406.994751,118.514854 
	C402.854492,118.695076 398.700836,118.692253 394.557159,118.577507 
	C393.597961,118.550941 392.658447,117.813332 391.709869,117.402924 
	C392.464386,116.558136 393.201355,115.696846 393.977783,114.872719 
	C394.963562,113.826385 396.821533,112.834557 396.852173,111.777237 
	C397.092407,103.478577 396.985352,95.169861 396.985352,87.402992 
	C395.687439,84.497154 390.169861,88.395218 391.473755,82.615570 
z"/>
<path fill="#20BE89" opacity="1.000000" stroke="none" 
	d="
M370.955444,112.376068 
	C370.984558,103.489311 370.984558,95.045326 370.984558,86.411636 
	C368.867554,86.143158 367.108124,85.920036 365.311188,85.692146 
	C364.061401,80.330956 368.719574,82.527603 370.552246,81.256912 
	C371.394745,76.877281 371.887726,72.396378 373.160248,68.149033 
	C375.603760,59.993225 381.654480,55.623749 389.795624,54.241348 
	C391.717072,53.915081 394.201691,54.499149 395.808075,55.582504 
	C396.852051,56.286587 397.383240,58.828819 396.982971,60.211311 
	C396.723511,61.107513 394.261017,62.049236 392.976410,61.833652 
	C389.503571,61.250832 385.449738,58.001671 382.825562,61.634262 
	C380.253601,65.194603 379.218262,69.957001 377.940216,74.318321 
	C377.366058,76.277626 377.843018,78.544930 377.843018,81.389496 
	C380.637146,81.389496 383.272400,81.144928 385.823639,81.501625 
	C386.952332,81.659439 387.910736,83.035011 388.946442,83.857758 
	C387.883606,84.655121 386.897064,85.972397 385.742126,86.141899 
	C383.318420,86.497612 380.806152,86.249863 377.702209,86.249863 
	C377.702209,95.159897 377.574005,103.616386 377.870667,112.057945 
	C377.906219,113.069542 380.256958,113.990700 381.521027,114.971268 
	C382.406189,115.657921 383.268219,116.374367 384.140594,117.077499 
	C383.109070,117.582298 382.092651,118.481644 381.043335,118.521797 
	C377.066345,118.673935 373.075897,118.624557 369.096893,118.477020 
	C367.962860,118.434982 366.850555,117.805443 365.728302,117.445297 
	C366.632507,116.566170 367.510437,115.657700 368.449005,114.816925 
	C369.238159,114.110008 370.097870,113.481873 370.955444,112.376068 
z"/>
<path fill="#17BB85" opacity="1.000000" stroke="none" 
	d="
M256.469177,86.010880 
	C254.757111,84.787033 253.289703,83.912468 251.822296,83.037903 
	C251.866318,82.477211 251.910324,81.916519 251.954346,81.355827 
	C255.351303,81.184494 258.748260,81.013161 263.012024,80.798103 
	C263.012024,86.485420 262.877014,91.902023 263.060577,97.307808 
	C263.178284,100.774284 263.315247,104.351112 264.241577,107.654694 
	C265.878113,113.491066 273.091339,116.675636 278.337524,114.228882 
	C281.398682,112.801170 283.318390,110.682541 283.133575,106.879135 
	C282.883209,101.726395 282.880188,96.542763 283.135284,91.390427 
	C283.332764,87.402435 282.699524,84.493530 277.934845,84.262993 
	C277.270874,84.230865 276.639160,83.531746 275.992523,83.141396 
	C276.009888,82.632538 276.027252,82.123688 276.044617,81.614830 
	C280.217133,81.324257 284.389618,81.033676 289.425934,80.682945 
	C289.425934,87.836700 289.364410,94.437035 289.445953,101.035599 
	C289.508057,106.061737 287.594543,111.868591 295.953400,114.498718 
	C291.333496,116.514648 288.084351,117.932442 284.609406,119.448769 
	C283.868286,118.142006 283.261902,117.072754 282.853577,116.352783 
	C279.101044,117.519249 275.700165,119.044380 272.149323,119.585350 
	C264.101990,120.811356 257.659515,114.653778 257.115479,105.318031 
	C256.747986,99.012352 256.831848,92.680382 256.469177,86.010880 
z"/>
<path fill="#1DBD88" opacity="1.000000" stroke="none" 
	d="
M357.228394,113.363312 
	C359.270813,113.038284 361.011871,112.435181 364.443054,111.246590 
	C362.327637,114.223152 361.221313,117.494141 359.354279,118.009560 
	C356.474548,118.804543 353.073853,117.712349 350.838593,117.507286 
	C345.390350,118.121552 340.605225,119.396019 335.975586,118.972160 
	C331.525635,118.564728 329.515350,114.539223 329.227264,110.230881 
	C328.962646,106.273834 330.612640,102.952660 334.329987,101.298843 
	C337.325256,99.966293 340.514435,98.879463 343.728760,98.271378 
	C349.423553,97.194008 349.998352,96.577209 348.930817,90.429367 
	C348.127350,85.802032 344.547424,82.849525 340.518951,84.156990 
	C338.512085,84.808334 336.645050,86.623398 335.290955,88.361061 
	C333.721527,90.375031 332.035858,91.922890 330.239471,89.585678 
	C329.407318,88.502968 329.798889,85.418381 330.798584,84.180374 
	C334.353699,79.777672 342.736877,78.537117 348.845795,80.872025 
	C354.736481,83.123512 355.750854,87.977791 355.763763,93.418617 
	C355.775238,98.246742 355.668365,103.078110 355.822479,107.901382 
	C355.878021,109.639320 356.541138,111.357841 357.228394,113.363312 
M345.970184,101.227547 
	C343.635468,102.010880 340.565948,102.145699 339.155029,103.744347 
	C337.452911,105.672935 336.365967,108.910027 336.579376,111.449074 
	C336.690491,112.770744 340.502319,115.091049 342.053772,114.688904 
	C344.677917,114.008705 348.287018,111.870415 348.799500,109.709091 
	C349.366486,107.317871 351.901001,102.850174 345.970184,101.227547 
z"/>
<path fill="#1CBC87" opacity="1.000000" stroke="none" 
	d="
M418.356750,94.797020 
	C422.048889,83.098473 432.785492,77.080971 442.883331,80.732162 
	C453.544250,84.586967 458.629089,97.299698 454.003784,108.534805 
	C449.984711,118.297333 438.445221,122.580002 428.493652,118.002449 
	C420.544525,114.346008 417.170288,106.857750 418.356750,94.797020 
M439.539642,84.605507 
	C433.164917,83.468979 427.450226,85.863197 426.230591,91.873901 
	C425.161865,97.140755 425.652191,103.015480 426.775635,108.342941 
	C427.666260,112.566185 431.542175,115.003166 436.189880,115.279076 
	C441.014252,115.565475 444.509033,113.353355 446.956940,109.355904 
	C452.146149,100.881798 449.155792,90.044991 439.539642,84.605507 
z"/>
<path fill="#1CBC87" opacity="1.000000" stroke="none" 
	d="
M316.804535,119.155609 
	C313.139374,119.203773 309.774536,119.587570 306.597717,118.983109 
	C298.770294,117.493759 296.384369,112.259193 299.859161,103.855385 
	C300.611176,105.023766 301.395996,105.796707 301.654114,106.717308 
	C303.200378,112.232574 307.977295,115.917068 313.423279,114.719513 
	C315.552582,114.251282 318.356537,111.924080 318.764679,110.000450 
	C319.140747,108.228004 317.196472,105.171196 315.407227,103.927536 
	C313.055237,102.292702 309.829956,101.946365 307.023987,100.925591 
	C301.837463,99.038788 298.763184,94.822449 299.005219,90.091537 
	C299.242859,85.446472 302.839752,81.630783 308.474640,80.681297 
	C311.875427,80.108261 315.388519,80.201759 319.422974,79.961739 
	C320.026550,82.984200 320.756134,85.848457 321.094025,88.758209 
	C321.212341,89.777008 320.366791,90.907738 319.961365,91.987358 
	C319.164093,91.314659 318.386963,90.616241 317.565765,89.974121 
	C315.193115,88.118858 313.028381,85.535927 310.334747,84.725822 
	C308.715332,84.238777 305.495178,86.058205 304.459747,87.742111 
	C303.807190,88.803345 305.338348,92.232933 306.827087,93.341568 
	C308.984833,94.948357 311.936646,95.620071 314.644135,96.331505 
	C321.424622,98.113174 324.507843,101.004707 325.216034,106.644836 
	C325.877686,111.914040 323.393127,115.751816 316.804535,119.155609 
z"/>
<path fill="#FEFFFE" opacity="1.000000" stroke="none" 
	d="
M88.572021,78.872498 
	C88.043961,78.639900 87.878860,78.158043 87.713760,77.676186 
	C87.980774,77.592407 88.455681,77.395111 88.481766,77.442886 
	C88.681953,77.809517 88.794930,78.223778 88.572021,78.872498 
z"/>
<path fill="#FEFFFE" opacity="1.000000" stroke="none" 
	d="
M49.509247,75.353592 
	C49.964474,76.008987 50.419704,76.664375 50.874931,77.319771 
	C50.316509,77.181755 49.758087,77.043732 49.181839,76.353653 
	C49.279095,75.652260 49.394169,75.502930 49.509247,75.353592 
z"/>
<path fill="#FEFFFE" opacity="1.000000" stroke="none" 
	d="
M48.971718,76.008926 
	C48.481312,75.904442 48.183205,75.592621 47.885101,75.280800 
	C48.248291,75.166634 48.611481,75.052460 49.241959,75.145943 
	C49.394169,75.502930 49.279095,75.652260 48.971718,76.008926 
z"/>
<path fill="#F9FDFC" opacity="1.000000" stroke="none" 
	d="
M346.394562,101.181183 
	C351.901001,102.850174 349.366486,107.317871 348.799500,109.709091 
	C348.287018,111.870415 344.677917,114.008705 342.053772,114.688904 
	C340.502319,115.091049 336.690491,112.770744 336.579376,111.449074 
	C336.365967,108.910027 337.452911,105.672935 339.155029,103.744347 
	C340.565948,102.145699 343.635468,102.010880 346.394562,101.181183 
z"/>
<path fill="#FCFEFD" opacity="1.000000" stroke="none" 
	d="
M439.895447,84.753998 
	C449.155792,90.044991 452.146149,100.881798 446.956940,109.355904 
	C444.509033,113.353355 441.014252,115.565475 436.189880,115.279076 
	C431.542175,115.003166 427.666260,112.566185 426.775635,108.342941 
	C425.652191,103.015480 425.161865,97.140755 426.230591,91.873901 
	C427.450226,85.863197 433.164917,83.468979 439.895447,84.753998 
z"/>
</svg>